<?xml version="1.0" ?><!DOCTYPE svg  PUBLIC '-//W3C//DTD SVG 1.1//EN'  'http://www.w3.org/Graphics/SVG/1.1/DTD/svg11.dtd'><svg enable-background="new 0 0 64 64" height="64px" id="Layer_1" version="1.1" viewBox="0 0 64 64" width="64px" xml:space="preserve" xmlns="http://www.w3.org/2000/svg" xmlns:xlink="http://www.w3.org/1999/xlink"><g><g><g><path d="M18.623,1.812c-7.884,4.343-10.261,15.153-5.302,24.157c3.593,6.525,10.049,10.315,16.344,10.238     l7.995,5.923l4.812-2.651l-0.668-9.955c3.408-5.284,3.664-12.754,0.071-19.279C36.915,1.239,26.51-2.532,18.623,1.812z      M35.236,31.884c-6.522,3.591-15.2,0.348-19.38-7.242c-4.18-7.59-2.283-16.656,4.24-20.247c6.522-3.592,15.198-0.35,19.38,7.241     C43.656,19.227,41.758,28.293,35.236,31.884z" fill="#FFFFFF"/></g><path d="M43.606,41.579l10.439,18.956c0.41,0.747,0.137,1.694-0.61,2.105L51.331,63.8    c-0.747,0.411-1.695,0.138-2.105-0.611l-10.44-18.954L43.606,41.579z" fill="#FFFFFF"/></g><path d="M21.317,40.814c-6.382,0-11.553,5.173-11.553,11.554s5.171,11.554,11.553,11.554   c6.381,0,11.554-5.173,11.554-11.554S27.698,40.814,21.317,40.814z M12.796,52.367c0-2.35,0.952-4.479,2.49-6.02   c0.03,0.106,0.037,0.201,0.085,0.312c3.127,4.555,0.794,9.544-0.171,11.067c-0.077,0.122-0.128,0.25-0.168,0.38   C13.648,56.592,12.796,54.581,12.796,52.367z M17.412,59.934c0.056-0.067,0.113-0.134,0.167-0.219   c5.578-8.358,0.203-14.959,0.203-14.959c-0.036-0.033-0.082-0.046-0.12-0.077c1.109-0.527,2.345-0.832,3.656-0.832   c1.438,0,2.789,0.358,3.977,0.988c-0.021,0.025-5.36,6.612,0.205,14.952c-1.237,0.698-2.662,1.102-4.182,1.102   C19.908,60.889,18.582,60.539,17.412,59.934z M27.878,57.803c-0.966-1.522-3.297-6.509-0.172-11.062   c1.323,1.502,2.131,3.467,2.131,5.627C29.837,54.433,29.102,56.326,27.878,57.803z" fill="#FFFFFF"/></g></svg>